<mxfile host="app.diagrams.net" modified="2024-01-10T02:47:14.983Z" agent="Mozilla/5.0 (Macintosh; Intel Mac OS X 10_15_7) AppleWebKit/605.1.15 (KHTML, like Gecko) Version/16.6 Safari/605.1.15" version="22.1.18" etag="1hPV6ssTdR2WCAn5tnSa" type="github">
  <diagram name="Page-1" id="m9Cn9vvByTTY5hgK0bkU">
    <mxGraphModel>
      <root>
        <mxCell id="0" />
        <mxCell id="1" parent="0" />
      </root>
    </mxGraphModel>
  </diagram>
</mxfile>
